<svg width="63" height="22" viewBox="0 0 63 22" fill="none" xmlns="http://www.w3.org/2000/svg">
<path d="M62.5864 0L17.2279 19.5777C13.4665 21.1908 10.3071 22 7.75217 22C4.85881 22 2.75855 20.9735 1.45653 18.9177C0.637612 17.5979 0.39736 15.9245 0.733196 13.895C1.06903 11.8655 1.96287 9.70504 3.40955 7.40578C4.61598 5.54648 6.59224 3.1032 9.34351 0.0733243C8.41031 1.56251 7.726 3.19763 7.31816 4.91275C6.59482 8.04214 7.24583 10.3388 9.27118 11.8053C10.2348 12.4887 11.56 12.8318 13.2495 12.8318C14.5981 12.8318 16.1171 12.6118 17.8066 12.1719L62.5864 0Z" fill="white"/>
</svg>
